<?xml version="1.0" standalone="no"?>
<!DOCTYPE svg PUBLIC "-//W3C//DTD SVG 20010904//EN"
 "http://www.w3.org/TR/2001/REC-SVG-20010904/DTD/svg10.dtd">
<svg version="1.0" xmlns="http://www.w3.org/2000/svg"
 width="800.000000pt" height="800.000000pt" viewBox="0 0 800.000000 800.000000"
 preserveAspectRatio="xMidYMid meet">
<metadata>
Created by potrace 1.14, written by Peter Selinger 2001-2017
</metadata>
<g transform="translate(0.000000,800.000000) scale(0.100000,-0.100000)"
fill="#000000" stroke="none">
<path d="M4480 7119 c-297 -18 -638 -130 -886 -290 l-61 -40 -45 16 c-67 22
-211 34 -308 25 -311 -29 -572 -228 -662 -505 -32 -99 -32 -300 0 -393 32 -95
81 -180 141 -244 35 -38 48 -59 40 -62 -8 -2 -47 -9 -87 -15 -208 -32 -398
-170 -487 -355 -47 -98 -58 -160 -53 -285 4 -91 9 -117 38 -185 32 -77 96
-167 152 -214 15 -13 28 -27 28 -31 0 -4 -22 -13 -50 -19 -128 -30 -272 -124
-344 -226 -59 -83 -81 -128 -101 -214 -44 -182 14 -374 157 -514 26 -26 48
-49 48 -51 0 -2 -17 -7 -38 -9 -53 -8 -185 -62 -238 -99 -123 -84 -221 -230
-245 -364 -26 -140 6 -291 86 -412 19 -29 35 -55 35 -59 0 -14 -70 -95 -180
-209 -293 -304 -361 -418 -363 -605 -1 -82 2 -102 23 -143 62 -124 213 -206
416 -227 88 -9 357 1 569 21 196 19 351 8 925 -66 107 -13 222 -25 255 -25
119 0 129 -5 155 -69 68 -164 185 -284 332 -341 61 -24 227 -50 278 -43 184
22 259 54 354 148 68 68 136 191 172 308 l17 58 74 -3 75 -3 18 -52 c29 -84
70 -150 127 -207 231 -231 679 -202 868 56 43 57 79 141 109 248 33 119 82
455 106 735 24 282 31 344 44 410 27 125 45 267 52 403 l7 134 46 20 c78 33
141 109 141 172 0 11 21 42 45 68 59 60 85 122 92 211 11 148 -41 272 -134
317 -46 22 -52 29 -57 63 -4 22 -16 56 -26 78 -20 39 -85 89 -115 89 -28 0
-38 49 -21 105 8 27 14 57 14 66 -1 8 9 30 22 47 21 28 22 35 12 70 -7 22 -24
47 -43 61 -30 23 -36 23 -98 14 -36 -6 -73 -14 -81 -17 -10 -3 -25 8 -43 35
l-27 40 37 15 c357 147 542 359 543 621 0 120 -40 238 -119 351 -39 55 -41 62
-50 167 -37 399 -208 743 -514 1035 -224 212 -572 367 -863 385 -49 3 -111 7
-139 9 -27 1 -106 -1 -175 -5z m455 -108 c124 -27 255 -71 349 -118 262 -131
502 -378 641 -659 30 -61 55 -114 55 -118 0 -4 6 -22 14 -39 41 -94 73 -238
87 -390 9 -110 13 -126 40 -162 91 -125 129 -224 129 -336 0 -130 -45 -225
-163 -348 -119 -123 -284 -207 -510 -260 -108 -26 -145 -26 -170 -3 -37 33
-173 18 -222 -24 l-30 -26 -145 6 c-234 11 -483 43 -717 92 -173 36 -206 39
-222 20 -16 -19 -6 -53 17 -60 26 -8 213 -45 337 -67 181 -32 411 -59 566 -65
l146 -7 12 -33 c6 -17 18 -35 26 -38 12 -4 14 -15 9 -45 -10 -65 1 -90 51
-111 30 -13 45 -25 45 -38 0 -26 44 -64 74 -64 34 0 33 -16 -1 -24 -35 -8 -99
-40 -135 -67 -38 -28 -58 -85 -58 -167 l0 -70 -32 0 c-57 0 -210 21 -294 40
-72 17 -179 52 -324 105 -80 29 -250 117 -333 172 -44 29 -86 53 -93 53 -28 0
-44 -13 -44 -36 0 -20 17 -35 83 -78 235 -153 552 -267 947 -341 203 -38 258
-58 326 -122 147 -136 11 -319 -299 -402 -190 -51 -502 -67 -726 -37 -118 16
-345 69 -442 103 -59 21 -81 13 -77 -28 3 -30 7 -33 78 -56 263 -83 423 -108
700 -108 242 0 360 14 530 60 l85 24 27 -28 c50 -51 152 -64 328 -42 41 5 138
13 214 17 l139 7 -6 -49 c-3 -27 -9 -92 -12 -144 -19 -277 -78 -515 -185 -735
-205 -424 -570 -662 -1077 -701 l-93 -7 1 24 c0 13 4 47 9 74 9 46 17 104 51
373 9 73 10 108 3 120 -14 21 -57 27 -71 10 -6 -7 -15 -60 -22 -118 -45 -410
-82 -582 -160 -736 -49 -96 -126 -177 -209 -219 -55 -29 -62 -30 -192 -30
-123 0 -142 2 -210 28 -133 49 -221 133 -285 272 -71 152 -94 258 -130 590
-28 258 -26 246 -51 257 -19 9 -28 8 -45 -8 -18 -16 -20 -26 -15 -69 4 -27 13
-104 21 -170 25 -214 35 -281 54 -371 11 -49 18 -91 16 -93 -5 -5 -211 15
-345 33 -58 8 -195 26 -305 41 -238 33 -467 38 -650 15 -76 -9 -207 -15 -355
-15 -218 0 -240 2 -309 23 -138 43 -215 117 -241 228 -10 43 -9 63 5 119 31
121 106 228 298 425 68 69 146 152 173 185 199 236 437 734 606 1265 35 111
165 539 180 590 5 19 15 53 23 75 7 22 34 114 59 205 220 790 312 1062 463
1365 305 612 748 958 1368 1069 133 24 144 24 340 21 137 -2 204 -8 280 -24z
m437 -2488 c24 -21 23 -50 -3 -63 -32 -18 -21 -53 18 -61 44 -9 63 -26 63 -58
0 -31 -16 -51 -42 -51 -25 0 -33 -26 -18 -55 14 -27 8 -53 -16 -62 -21 -8 -31
9 -39 74 -5 45 -10 53 -27 53 -12 0 -30 -7 -40 -16 -16 -16 -18 -15 -24 1 -4
10 -3 23 2 30 52 70 55 95 10 95 -16 0 -32 9 -42 24 -13 22 -14 29 -2 53 11
23 21 29 60 33 26 3 50 9 54 13 12 11 26 8 46 -10z m304 -60 c10 -27 21 -52
24 -58 16 -22 81 -229 76 -240 -3 -9 -36 -15 -103 -18 -89 -4 -208 -19 -258
-33 -18 -5 -18 -3 3 13 27 22 52 68 52 96 0 11 10 31 23 45 17 18 22 36 22 74
0 44 -4 53 -33 76 -55 45 -49 51 72 72 33 5 62 12 64 15 3 3 13 5 23 5 12 0
23 -16 35 -47z m302 -45 c7 -7 12 -23 12 -36 0 -18 -5 -23 -21 -20 -30 4 -48
-26 -31 -52 15 -24 16 -66 1 -76 -16 -10 -33 12 -34 44 0 34 -39 44 -60 15
-13 -17 -14 -17 -21 1 -5 14 -2 23 10 30 10 6 27 18 39 27 l20 16 -22 20 c-18
16 -19 22 -7 26 8 3 23 3 34 0 11 -3 29 0 39 6 23 13 27 13 41 -1z m-84 -254
c5 -14 4 -15 -9 -4 -17 14 -19 20 -6 20 5 0 12 -7 15 -16z m167 -410 c-48 -98
-72 -203 -61 -264 7 -38 5 -44 -12 -41 -5 0 -8 -7 -8 -17 0 -10 -7 -28 -16
-40 -25 -36 -9 -36 21 0 24 28 28 30 37 15 21 -38 57 -72 89 -83 31 -10 34
-15 33 -47 -2 -50 -27 -84 -71 -97 -37 -11 -184 -26 -490 -52 -150 -12 -154
-12 -198 10 -25 12 -45 26 -45 31 0 6 16 18 35 27 51 24 133 100 155 145 11
20 22 61 26 91 17 142 -78 264 -248 319 -58 19 -68 25 -68 45 0 23 1 23 39 10
107 -38 330 -45 511 -16 94 15 215 54 260 84 l35 24 9 -29 c7 -24 2 -43 -33
-115z m177 -1 c81 -177 -29 -445 -132 -322 -47 56 -34 165 38 307 21 43 43 72
52 72 9 0 26 -24 42 -57z m-410 -1710 c-4 -43 -10 -118 -13 -168 -7 -104 -38
-319 -62 -420 -37 -164 -125 -291 -241 -353 -62 -33 -204 -64 -257 -56 -155
24 -206 44 -303 116 -55 41 -106 112 -134 185 -19 49 -28 43 102 69 167 33
357 114 499 214 133 94 275 252 356 395 36 64 55 95 58 95 1 0 -1 -35 -5 -77z"/>
<path d="M5694 5703 c-54 -44 -71 -160 -36 -233 21 -43 77 -76 114 -67 94 24
130 190 60 276 -24 30 -36 36 -73 39 -30 1 -51 -3 -65 -15z"/>
<path d="M4612 5644 c-43 -30 -65 -105 -55 -183 4 -32 16 -54 43 -82 39 -41
68 -48 114 -28 31 15 76 104 76 152 0 46 -32 120 -61 141 -30 20 -88 21 -117
0z"/>
<path d="M5294 5115 c-51 -56 -86 -60 -127 -14 -25 29 -29 30 -50 17 -31 -21
-32 -50 -2 -86 49 -58 136 -65 203 -15 l33 24 42 -20 c24 -12 57 -21 73 -21
47 1 114 41 138 83 21 37 21 38 2 52 -28 21 -41 19 -76 -15 -44 -43 -87 -41
-127 5 -17 19 -40 35 -50 35 -10 0 -36 -21 -59 -45z"/>
<path d="M5792 3690 c-12 -16 -22 -31 -22 -34 0 -2 -14 -18 -30 -36 -17 -18
-28 -35 -25 -38 3 -3 26 16 50 43 25 26 43 51 40 53 -3 3 0 11 7 19 6 7 9 16
6 18 -2 3 -14 -9 -26 -25z"/>
<path d="M5814 3608 c-51 -58 -51 -59 -1 -127 15 -21 17 -21 17 -5 -1 11 -7
30 -15 44 -20 35 -18 60 7 87 12 13 19 23 16 23 -2 0 -13 -10 -24 -22z"/>
<path d="M5702 3544 c-1 -20 5 -37 18 -49 18 -17 20 -17 14 -2 -3 9 -10 17
-14 17 -5 0 -11 15 -13 33 l-4 32 -1 -31z"/>
<path d="M5650 3431 c0 -5 -10 -12 -22 -15 -22 -6 -22 -7 -5 -17 22 -13 194
-2 203 12 3 6 -11 7 -33 5 -134 -17 -136 -17 -130 4 3 11 1 20 -4 20 -5 0 -9
-4 -9 -9z"/>
<path d="M5810 3360 c-14 -4 -51 -8 -83 -9 -36 -1 -56 -5 -52 -11 3 -5 28 -10
55 -10 27 0 52 5 55 10 3 6 18 10 33 11 15 0 36 4 47 9 18 8 18 9 -5 8 -14 0
-36 -4 -50 -8z"/>
<path d="M5695 3290 c-8 -12 141 -12 170 0 13 6 -11 9 -72 9 -51 1 -95 -3 -98
-9z"/>
<path d="M5593 3246 c-32 -15 -29 -24 13 -32 45 -8 232 4 253 16 16 9 3 9
-125 -5 -65 -7 -126 4 -120 21 3 8 4 13 3 13 -1 -1 -12 -6 -24 -13z"/>
<path d="M5958 3223 c6 -2 18 -2 25 0 6 3 1 5 -13 5 -14 0 -19 -2 -12 -5z"/>
<path d="M5798 3193 c12 -2 32 -2 45 0 12 2 2 4 -23 4 -25 0 -35 -2 -22 -4z"/>
</g>
</svg>
